<svg width="815" height="44" xmlns="http://www.w3.org/2000/svg" xmlns:xlink="http://www.w3.org/1999/xlink" overflow="hidden"><defs><clipPath id="clip0"><rect x="-9" y="799" width="815" height="44"/></clipPath></defs><g clip-path="url(#clip0)" transform="translate(9 -799)"><path d="M559.044 11.0032 587.968 15.4899 569.634 0 559.044 11.0032Z" fill="#6D0716" fill-rule="evenodd" transform="matrix(1.02904 0 0 1 -8.42787 799)"/><path d="M0 11.0032 790.888 11.0032 790.888 44.0129-9.47004e-06 44.0129Z" fill="#01427C" transform="matrix(1.02904 0 0 1 -8.42787 799)"/><path d="M569.634 0 790.888 0 790.888 44 613.647 44C598.984 29.3376 584.309 14.6624 569.647 0L569.647 0Z" fill="#B2160F" fill-rule="evenodd" transform="matrix(1.02904 0 0 1 -8.42787 799)"/><path d="M639.261 17.9336 640.541 23.1701 641.834 17.9336 643.088 17.9336 644.394 23.1314 645.751 17.9336 646.863 17.9336 644.937 24.5795 643.773 24.5795 642.416 19.4334 641.11 24.5795 639.946 24.5795 638.032 17.9336 639.261 17.9336Z" fill="#FFFFFF" transform="matrix(1.02904 0 0 1 -8.42787 799)"/><path d="M648.428 17.9336 649.708 23.1701 651.001 17.9336 652.255 17.9336 653.561 23.1314 654.919 17.9336 656.031 17.9336 654.104 24.5795 652.94 24.5795 651.583 19.4334 650.277 24.5795 649.113 24.5795 647.199 17.9336 648.428 17.9336Z" fill="#FFFFFF" transform="matrix(1.02904 0 0 1 -8.42787 799)"/><path d="M657.595 17.9336 658.875 23.1701 660.168 17.9336 661.422 17.9336 662.728 23.1314 664.086 17.9336 665.198 17.9336 663.271 24.5795 662.108 24.5795 660.75 19.4334 659.444 24.5795 658.28 24.5795 656.367 17.9336 657.595 17.9336Z" fill="#FFFFFF" transform="matrix(1.02904 0 0 1 -8.42787 799)"/><path d="M665.831 23.2219 667.124 23.2219 667.124 24.5795 665.831 24.5795 665.831 23.2219Z" fill="#FFFFFF" transform="matrix(1.02904 0 0 1 -8.42787 799)"/><path d="M672.775 18.2051C672.981 18.3473 673.201 18.5542 673.421 18.8387L673.421 17.9982 674.455 17.9982 674.455 24.0364C674.455 24.8769 674.326 25.5492 674.081 26.0406 673.615 26.9456 672.749 27.3852 671.469 27.3852 670.758 27.3852 670.15 27.2301 669.671 26.9068 669.18 26.5836 668.909 26.0793 668.857 25.407L669.995 25.407C670.046 25.7044 670.15 25.9371 670.318 26.0923 670.564 26.3379 670.964 26.4672 671.507 26.4672 672.361 26.4672 672.917 26.1698 673.175 25.5622 673.331 25.213 673.408 24.5666 673.395 23.6615 673.175 23.9976 672.904 24.2562 672.594 24.4114 672.283 24.5795 671.87 24.6571 671.352 24.6571 670.641 24.6571 670.008 24.3985 669.478 23.8942 668.934 23.377 668.676 22.5366 668.676 21.36 668.676 20.248 668.947 19.3817 669.49 18.7611 670.034 18.1405 670.68 17.8301 671.456 17.8301 671.973 17.8301 672.425 17.9594 672.813 18.218ZM672.917 19.4076C672.581 19.0068 672.154 18.8128 671.624 18.8128 670.848 18.8128 670.305 19.1878 670.021 19.9118 669.865 20.2997 669.788 20.8169 669.788 21.4505 669.788 22.2004 669.943 22.7693 670.24 23.1572 670.538 23.5451 670.951 23.7391 671.456 23.7391 672.257 23.7391 672.813 23.377 673.137 22.653 673.318 22.2392 673.408 21.7608 673.408 21.2177 673.408 20.3902 673.24 19.7825 672.904 19.3817Z" fill="#FFFFFF" transform="matrix(1.02904 0 0 1 -8.42787 799)"/><path d="M676.175 15.464 677.287 15.464 677.287 24.5666 676.175 24.5666 676.175 15.464Z" fill="#FFFFFF" transform="matrix(1.02904 0 0 1 -8.42787 799)"/><path d="M683.778 18.593C684.36 19.1619 684.657 20.0023 684.657 21.1143 684.657 22.2263 684.398 23.0667 683.881 23.7649 683.364 24.4631 682.562 24.8122 681.476 24.8122 680.571 24.8122 679.847 24.5019 679.317 23.8813 678.787 23.2607 678.515 22.4331 678.515 21.3988 678.515 20.2868 678.8 19.3947 679.356 18.7352 679.912 18.0758 680.675 17.7396 681.619 17.7396 682.472 17.7396 683.183 18.0241 683.778 18.593ZM683.08 23.0021C683.351 22.4461 683.493 21.8254 683.493 21.1272 683.493 20.5066 683.39 20.0023 683.196 19.6145 682.886 19.0068 682.356 18.6964 681.593 18.6964 680.92 18.6964 680.429 18.955 680.119 19.4722 679.808 19.9894 679.653 20.623 679.653 21.36 679.653 22.097 679.808 22.653 680.119 23.1314 680.429 23.5968 680.907 23.8425 681.58 23.8425 682.317 23.8425 682.808 23.558 683.08 23.0021Z" fill="#FFFFFF" transform="matrix(1.02904 0 0 1 -8.42787 799)"/><path d="M685.937 15.4381 687.023 15.4381 687.023 18.7482C687.269 18.4249 687.566 18.1922 687.902 18.0241 688.239 17.856 688.614 17.7655 689.014 17.7655 689.842 17.7655 690.514 18.05 691.031 18.6189 691.549 19.1878 691.807 20.0282 691.807 21.1402 691.807 22.1875 691.549 23.0667 691.044 23.752 690.54 24.4502 689.829 24.7993 688.924 24.7993 688.42 24.7993 687.993 24.6829 687.644 24.4373 687.437 24.295 687.217 24.0623 686.971 23.7391L686.971 24.5924 685.937 24.5924 685.937 15.4511ZM690.204 23.0796C690.501 22.6012 690.656 21.9677 690.656 21.179 690.656 20.4808 690.501 19.8989 690.204 19.4464 689.907 18.9938 689.467 18.7611 688.872 18.7611 688.368 18.7611 687.915 18.955 687.527 19.33 687.14 19.705 686.958 20.3256 686.958 21.1919 686.958 21.8125 687.036 22.3297 687.191 22.7176 687.489 23.4546 688.032 23.8166 688.846 23.8166 689.454 23.8166 689.907 23.571 690.204 23.0926Z" fill="#FFFFFF" transform="matrix(1.02904 0 0 1 -8.42787 799)"/><path d="M696.656 20.5583C696.914 20.5195 697.083 20.4161 697.173 20.2351 697.225 20.1316 697.251 19.9894 697.251 19.8084 697.251 19.4205 697.121 19.149 696.85 18.9809 696.578 18.8128 696.19 18.7223 695.686 18.7223 695.104 18.7223 694.691 18.8775 694.445 19.2007 694.316 19.3817 694.225 19.6403 694.173 19.9765L693.126 19.9765C693.152 19.1619 693.41 18.5801 693.928 18.2698 694.445 17.9594 695.027 17.7914 695.699 17.7914 696.475 17.7914 697.108 17.9465 697.6 18.2439 698.078 18.5413 698.324 19.0068 698.324 19.6274L698.324 23.4546C698.324 23.571 698.35 23.6615 698.401 23.7391 698.453 23.8037 698.544 23.8425 698.699 23.8425 698.75 23.8425 698.802 23.8425 698.867 23.8425 698.932 23.8425 698.996 23.8296 699.061 23.8166L699.061 24.6441C698.893 24.6959 698.75 24.7217 698.66 24.7346 698.57 24.7476 698.44 24.7476 698.285 24.7476 697.897 24.7476 697.626 24.6053 697.445 24.3338 697.354 24.1916 697.289 23.9847 697.251 23.7132 697.018 24.0106 696.695 24.2692 696.268 24.489 695.841 24.7088 695.376 24.8122 694.859 24.8122 694.238 24.8122 693.734 24.6312 693.346 24.2562 692.958 23.8813 692.764 23.4158 692.764 22.8598 692.764 22.2392 692.958 21.7737 693.346 21.4246 693.734 21.0755 694.238 20.8816 694.859 20.804L696.643 20.5842ZM694.303 23.571C694.535 23.752 694.82 23.8554 695.143 23.8554 695.531 23.8554 695.919 23.7649 696.281 23.5839 696.901 23.2865 697.212 22.7952 697.212 22.1099L697.212 21.2177C697.07 21.3083 696.901 21.3729 696.682 21.4376 696.462 21.4893 696.255 21.541 696.048 21.5669L695.376 21.6574C694.975 21.7091 694.665 21.7996 694.458 21.916 694.109 22.1099 693.941 22.4202 693.941 22.8469 693.941 23.1701 694.057 23.4287 694.29 23.6098Z" fill="#FFFFFF" transform="matrix(1.02904 0 0 1 -8.42787 799)"/><path d="M700.186 15.464 701.298 15.464 701.298 24.5666 700.186 24.5666 700.186 15.464Z" fill="#FFFFFF" transform="matrix(1.02904 0 0 1 -8.42787 799)"/><path d="M702.979 17.9336 704.039 17.9336 704.039 18.8775C704.349 18.4896 704.685 18.2051 705.034 18.037 705.383 17.8689 705.771 17.7784 706.211 17.7784 707.155 17.7784 707.788 18.1017 708.125 18.7611 708.306 19.1231 708.396 19.6403 708.396 20.2997L708.396 24.5666 707.258 24.5666 707.258 20.3773C707.258 19.9765 707.194 19.6532 707.077 19.3947 706.883 18.9809 706.521 18.774 706.004 18.774 705.746 18.774 705.526 18.7999 705.358 18.8516 705.047 18.9421 704.789 19.1231 704.556 19.3947 704.375 19.6145 704.246 19.8343 704.194 20.0799 704.142 20.3127 704.103 20.6488 704.103 21.0755L704.103 24.5536 702.991 24.5536 702.991 17.9077Z" fill="#FFFFFF" transform="matrix(1.02904 0 0 1 -8.42787 799)"/><path d="M714.15 18.1146C714.589 18.3344 714.926 18.6189 715.158 18.968 715.378 19.3041 715.533 19.692 715.598 20.1446 715.663 20.4549 715.701 20.9333 715.701 21.6056L710.866 21.6056C710.892 22.278 711.047 22.821 711.344 23.2348 711.641 23.6485 712.094 23.8425 712.715 23.8425 713.296 23.8425 713.749 23.6485 714.098 23.2607 714.292 23.0408 714.421 22.7823 714.512 22.4849L715.611 22.4849C715.585 22.7305 715.482 23.0021 715.326 23.2994 715.158 23.5968 714.977 23.8425 714.783 24.0364 714.447 24.3726 714.033 24.5924 713.529 24.7088 713.258 24.7734 712.96 24.8122 712.624 24.8122 711.797 24.8122 711.111 24.5148 710.53 23.9071 709.961 23.3124 709.676 22.459 709.676 21.3858 709.676 20.3127 709.961 19.4593 710.542 18.787 711.124 18.1146 711.874 17.7914 712.792 17.7914 713.258 17.7914 713.71 17.9077 714.15 18.1275ZM714.551 20.7264C714.499 20.2351 714.396 19.8601 714.24 19.5627 713.93 19.0197 713.426 18.7611 712.715 18.7611 712.21 18.7611 711.784 18.9421 711.435 19.3171 711.086 19.692 710.904 20.1575 710.892 20.7264L714.551 20.7264Z" fill="#FFFFFF" transform="matrix(1.02904 0 0 1 -8.42787 799)"/><path d="M716.477 17.9336 717.925 17.9336 719.451 20.2739 720.99 17.9336 722.347 17.9594 720.11 21.166 722.451 24.5666 721.029 24.5666 719.373 22.0711 717.77 24.5666 716.361 24.5666 718.701 21.166 716.477 17.9336Z" fill="#FFFFFF" transform="matrix(1.02904 0 0 1 -8.42787 799)"/><path d="M724.571 17.9336 724.571 22.3426C724.571 22.6788 724.623 22.9633 724.726 23.1701 724.92 23.571 725.282 23.7649 725.812 23.7649 726.575 23.7649 727.08 23.4158 727.364 22.7176 727.519 22.3426 727.584 21.8384 727.584 21.1919L727.584 17.9336 728.696 17.9336 728.696 24.5795 727.636 24.5795 727.636 23.5968C727.506 23.8554 727.325 24.0623 727.118 24.2304 726.705 24.5795 726.188 24.7476 725.593 24.7476 724.662 24.7476 724.028 24.4373 723.692 23.8037 723.511 23.4675 723.42 23.015 723.42 22.4461L723.42 17.9336 724.558 17.9336Z" fill="#FFFFFF" transform="matrix(1.02904 0 0 1 -8.42787 799)"/><path d="M731.191 22.4978C731.23 22.8728 731.321 23.1572 731.476 23.3512 731.76 23.7132 732.264 23.8942 732.976 23.8942 733.402 23.8942 733.764 23.8037 734.088 23.6227 734.411 23.4417 734.566 23.1701 734.566 22.7952 734.566 22.5107 734.437 22.2909 734.178 22.1487 734.01 22.0582 733.687 21.9547 733.208 21.8384L732.303 21.6186C731.721 21.4763 731.308 21.3212 731.036 21.1531 730.545 20.8557 730.299 20.429 730.299 19.8989 730.299 19.2783 730.532 18.7611 730.984 18.3732 731.437 17.9853 732.058 17.7914 732.833 17.7914 733.842 17.7914 734.579 18.0887 735.031 18.6706 735.316 19.0455 735.445 19.4464 735.445 19.8731L734.385 19.8731C734.359 19.6274 734.269 19.3947 734.113 19.1878 733.855 18.8904 733.402 18.7482 732.743 18.7482 732.316 18.7482 731.98 18.8257 731.76 18.9938 731.54 19.149 731.424 19.3688 731.424 19.6274 731.424 19.9118 731.566 20.1446 731.864 20.3256 732.032 20.429 732.277 20.5195 732.614 20.5971L733.363 20.7781C734.178 20.9721 734.734 21.166 735.006 21.347 735.445 21.6315 735.652 22.084 735.652 22.6917 735.652 23.2994 735.419 23.7908 734.967 24.2175 734.514 24.6441 733.816 24.8639 732.898 24.8639 731.902 24.8639 731.191 24.6441 730.778 24.1916 730.364 23.7391 730.144 23.1831 730.105 22.5237L731.178 22.5237Z" fill="#FFFFFF" transform="matrix(1.02904 0 0 1 -8.42787 799)"/><path d="M740.527 18.1405C740.721 18.2698 740.953 18.4766 741.199 18.787L741.199 15.4252 742.272 15.4252 742.272 24.5666 741.264 24.5666 741.264 23.6485C741.005 24.0623 740.695 24.3468 740.346 24.5407 739.996 24.7346 739.583 24.8122 739.13 24.8122 738.393 24.8122 737.76 24.5019 737.217 23.8813 736.674 23.2607 736.402 22.4331 736.402 21.3988 736.402 20.429 736.648 19.5886 737.139 18.8775 737.63 18.1663 738.329 17.8172 739.247 17.8172 739.751 17.8172 740.177 17.9207 740.514 18.1405ZM738.031 23.1184C738.329 23.5968 738.807 23.8425 739.479 23.8425 739.996 23.8425 740.41 23.6227 740.746 23.1831 741.083 22.7435 741.238 22.097 741.238 21.2695 741.238 20.442 741.07 19.8084 740.721 19.4076 740.384 19.0068 739.958 18.7999 739.453 18.7999 738.897 18.7999 738.445 19.0197 738.096 19.4464 737.747 19.8731 737.579 20.5066 737.579 21.347 737.579 22.0582 737.734 22.653 738.031 23.1314Z" fill="#FFFFFF" transform="matrix(1.02904 0 0 1 -8.42787 799)"/><path d="M748.323 18.2827C748.789 18.6447 749.073 19.2783 749.164 20.1575L748.078 20.1575C748.013 19.7438 747.858 19.4076 747.625 19.1361 747.392 18.8645 747.017 18.7352 746.487 18.7352 745.776 18.7352 745.272 19.0843 744.961 19.7696 744.768 20.2222 744.664 20.7781 744.664 21.4376 744.664 22.097 744.806 22.6659 745.091 23.1184 745.375 23.571 745.815 23.8037 746.422 23.8037 746.888 23.8037 747.25 23.6615 747.522 23.377 747.793 23.0926 747.974 22.7047 748.078 22.2133L749.164 22.2133C749.034 23.0926 748.724 23.7391 748.233 24.1399 747.741 24.5536 747.108 24.7476 746.332 24.7476 745.466 24.7476 744.768 24.4243 744.25 23.7908 743.733 23.1572 743.475 22.3685 743.475 21.4117 743.475 20.248 743.759 19.3429 744.328 18.6964 744.897 18.05 745.621 17.7267 746.487 17.7267 747.237 17.7267 747.845 17.9077 748.31 18.2698Z" fill="#FFFFFF" transform="matrix(1.02904 0 0 1 -8.42787 799)"/><path d="M750.547 23.2219 751.84 23.2219 751.84 24.5795 750.547 24.5795 750.547 23.2219Z" fill="#FFFFFF" transform="matrix(1.02904 0 0 1 -8.42787 799)"/><path d="M758.202 18.2827C758.667 18.6447 758.951 19.2783 759.042 20.1575L757.956 20.1575C757.891 19.7438 757.736 19.4076 757.503 19.1361 757.271 18.8645 756.896 18.7352 756.365 18.7352 755.654 18.7352 755.15 19.0843 754.84 19.7696 754.646 20.2222 754.542 20.7781 754.542 21.4376 754.542 22.097 754.685 22.6659 754.969 23.1184 755.254 23.571 755.693 23.8037 756.301 23.8037 756.766 23.8037 757.128 23.6615 757.4 23.377 757.671 23.0926 757.852 22.7047 757.956 22.2133L759.042 22.2133C758.913 23.0926 758.602 23.7391 758.111 24.1399 757.62 24.5536 756.986 24.7476 756.21 24.7476 755.344 24.7476 754.646 24.4243 754.129 23.7908 753.611 23.1572 753.353 22.3685 753.353 21.4117 753.353 20.248 753.637 19.3429 754.206 18.6964 754.775 18.05 755.499 17.7267 756.365 17.7267 757.115 17.7267 757.723 17.9077 758.189 18.2698Z" fill="#FFFFFF" transform="matrix(1.02904 0 0 1 -8.42787 799)"/><path d="M764.977 18.593C765.559 19.1619 765.856 20.0023 765.856 21.1143 765.856 22.2263 765.597 23.0667 765.08 23.7649 764.563 24.4631 763.761 24.8122 762.675 24.8122 761.77 24.8122 761.046 24.5019 760.516 23.8813 759.986 23.2607 759.714 22.4331 759.714 21.3988 759.714 20.2868 759.999 19.3947 760.555 18.7352 761.111 18.0758 761.874 17.7396 762.817 17.7396 763.671 17.7396 764.382 18.0241 764.977 18.593ZM764.279 23.0021C764.55 22.4461 764.692 21.8254 764.692 21.1272 764.692 20.5066 764.589 20.0023 764.395 19.6145 764.085 19.0068 763.554 18.6964 762.792 18.6964 762.119 18.6964 761.628 18.955 761.318 19.4722 761.007 19.9894 760.852 20.623 760.852 21.36 760.852 22.097 761.007 22.653 761.318 23.1314 761.628 23.5968 762.106 23.8425 762.779 23.8425 763.516 23.8425 764.007 23.558 764.279 23.0021Z" fill="#FFFFFF" transform="matrix(1.02904 0 0 1 -8.42787 799)"/><path d="M767.227 17.9336 768.326 17.9336 768.326 18.8775C768.584 18.5542 768.83 18.3085 769.05 18.1663 769.412 17.9077 769.838 17.7914 770.304 17.7914 770.834 17.7914 771.261 17.9207 771.584 18.1793 771.765 18.3344 771.933 18.5413 772.075 18.8387 772.321 18.4896 772.618 18.218 772.954 18.05 773.291 17.8819 773.666 17.7914 774.079 17.7914 774.971 17.7914 775.579 18.1146 775.902 18.7611 776.07 19.1102 776.161 19.5757 776.161 20.1575L776.161 24.5795 774.997 24.5795 774.997 19.9636C774.997 19.5239 774.881 19.2136 774.661 19.0455 774.441 18.8775 774.17 18.7999 773.847 18.7999 773.407 18.7999 773.032 18.9421 772.709 19.2395 772.385 19.5369 772.23 20.0282 772.23 20.7135L772.23 24.5795 771.093 24.5795 771.093 20.248C771.093 19.7955 771.041 19.4722 770.937 19.2654 770.769 18.955 770.446 18.7999 769.994 18.7999 769.567 18.7999 769.192 18.968 768.843 19.2912 768.494 19.6145 768.326 20.2092 768.326 21.0626L768.326 24.5795 767.214 24.5795 767.214 17.9336Z" fill="#FFFFFF" transform="matrix(1.02904 0 0 1 -8.42787 799)"/><path d="M633.804 18.2568C633.261 16.9768 632.485 15.826 631.503 14.8434 630.52 13.8607 629.369 13.0849 628.089 12.5419 626.77 11.9859 625.361 11.7014 623.913 11.7014 622.465 11.7014 621.055 11.9859 619.737 12.5419 618.457 13.0849 617.306 13.8607 616.323 14.8434 615.341 15.826 614.565 16.9768 614.022 18.2568 613.466 19.5757 613.181 20.985 613.181 22.4331 613.181 23.8813 613.466 25.2906 614.022 26.6095 614.565 27.8895 615.341 29.0403 616.323 30.0229 617.306 31.0056 618.457 31.7814 619.737 32.3244 621.055 32.8804 622.465 33.1649 623.913 33.1649 625.361 33.1649 626.77 32.8804 628.089 32.3244 629.369 31.7814 630.52 31.0056 631.503 30.0229 632.485 29.0403 633.261 27.8895 633.804 26.6095 634.36 25.2906 634.645 23.8813 634.645 22.4331 634.645 20.985 634.36 19.5757 633.804 18.2568ZM620.086 22.4331C620.086 20.9592 620.215 19.5369 620.461 18.2439 621.43 18.3732 622.426 18.4378 623.46 18.4508L623.46 22.8598C622.31 22.8598 621.185 22.7952 620.086 22.6917 620.086 22.6012 620.086 22.5237 620.086 22.4331ZM619.168 22.5883C617.358 22.3556 615.664 21.9677 614.138 21.4505 614.306 19.8213 614.862 18.3215 615.716 17.0156 616.892 17.494 618.185 17.8689 619.556 18.1017 619.297 19.4464 619.168 20.9204 619.168 22.4331 619.168 22.4849 619.168 22.5366 619.168 22.5883ZM624.366 12.697C625.141 12.9686 625.917 13.8995 626.512 15.3476 626.758 15.9295 626.964 16.576 627.133 17.2612 626.227 17.4035 625.309 17.494 624.353 17.5328L624.353 12.697ZM623.448 12.697 623.448 17.5457C622.491 17.5457 621.56 17.481 620.642 17.3647 620.823 16.6406 621.03 15.9683 621.288 15.3606 621.896 13.9124 622.659 12.9686 623.435 12.71ZM623.448 23.7778 623.448 27.3982C622.504 27.3982 621.573 27.4628 620.655 27.5792 620.357 26.3767 620.163 25.032 620.099 23.6227 621.185 23.7261 622.31 23.7778 623.448 23.7778ZM623.448 28.3033 623.448 32.1822C622.672 31.9107 621.896 30.9797 621.301 29.5316 621.159 29.1954 621.03 28.8334 620.913 28.4584 621.741 28.355 622.594 28.3162 623.448 28.3033ZM624.366 32.1822 624.366 28.3162C625.219 28.3421 626.059 28.4196 626.874 28.536 626.758 28.8851 626.641 29.2083 626.512 29.5187 625.904 30.9668 625.141 31.9107 624.366 32.1693ZM624.366 27.4111 624.366 23.7649C625.503 23.7391 626.628 23.6615 627.714 23.5192 627.65 24.9932 627.456 26.4026 627.133 27.6568 626.24 27.5145 625.309 27.437 624.366 27.3982ZM624.366 22.8598 624.366 18.4508C625.374 18.412 626.383 18.3215 627.339 18.1663 627.598 19.4852 627.74 20.9462 627.74 22.459 627.74 22.5107 627.74 22.5624 627.74 22.6271 626.641 22.7693 625.516 22.8469 624.366 22.8728ZM628.232 17.9853C629.563 17.7009 630.818 17.313 631.942 16.8087 632.835 18.0758 633.442 19.5757 633.649 21.1919 632.162 21.7608 630.468 22.2004 628.645 22.4849 628.645 22.4849 628.645 22.459 628.645 22.4461 628.645 20.8816 628.503 19.3688 628.232 17.9853ZM631.361 16.0588C630.352 16.4984 629.227 16.8475 628.025 17.0932 627.844 16.3432 627.611 15.6321 627.339 14.9985 626.977 14.1193 626.551 13.4082 626.085 12.8651 628.167 13.3435 630.003 14.4813 631.361 16.0588ZM621.715 12.8651C621.249 13.4082 620.823 14.1193 620.461 14.9985 620.176 15.6709 619.944 16.4208 619.75 17.2225 618.521 17.0026 617.358 16.6923 616.284 16.2656 617.642 14.5848 619.543 13.3694 621.728 12.8651ZM614.086 22.3944C615.651 22.9115 617.371 23.2865 619.194 23.5063 619.258 24.9932 619.452 26.4155 619.763 27.6956 618.534 27.9024 617.358 28.1998 616.271 28.6006 614.901 26.9068 614.086 24.7605 614.086 22.4331 614.086 22.4202 614.086 22.4073 614.086 22.3944ZM616.931 29.3376C617.888 29.0144 618.922 28.7558 619.995 28.5877 620.138 29.0403 620.28 29.4799 620.461 29.8807 620.823 30.7599 621.249 31.4711 621.715 32.0141 619.866 31.5874 618.224 30.6435 616.931 29.3506ZM626.098 32.0012C626.564 31.4581 626.99 30.747 627.352 29.8678 627.508 29.4928 627.65 29.1049 627.779 28.6912 628.813 28.8851 629.783 29.1696 630.701 29.5057 629.434 30.7211 627.857 31.6004 626.098 32.0012ZM631.386 28.7946C630.352 28.3679 629.227 28.0447 628.038 27.8119 628.374 26.4672 628.581 24.9674 628.632 23.3899 630.468 23.1055 632.201 22.6788 633.727 22.1228 633.727 22.2263 633.727 22.3297 633.727 22.4331 633.727 24.8639 632.847 27.0879 631.373 28.7946Z" fill="#FFFFFF" transform="matrix(1.02904 0 0 1 -8.42787 799)"/><path d="M66.084 21.903 67.8942 29.7255 70.0664 21.903 71.4758 21.903 73.6609 29.7385 75.4711 21.903 76.9063 21.903 74.372 31.5357 73.0015 31.5357 70.7775 23.5451 68.5407 31.5357 67.1701 31.5357 64.6488 21.903 66.0711 21.903Z" fill="#FFFFFF" transform="matrix(1.02904 0 0 1 -8.42787 799)"/><path d="M81.2377 27.2818C81.5093 27.243 81.6903 27.1396 81.7808 26.9456 81.8325 26.8422 81.8584 26.687 81.8584 26.4931 81.8584 26.0923 81.7161 25.7949 81.4317 25.6139 81.1472 25.4329 80.7335 25.3423 80.2033 25.3423 79.5827 25.3423 79.156 25.5104 78.8974 25.8466 78.7552 26.0276 78.6647 26.2991 78.613 26.6741L77.514 26.6741C77.5398 25.8078 77.8113 25.2001 78.3544 24.8639 78.8974 24.5278 79.5181 24.3597 80.2292 24.3597 81.0567 24.3597 81.7291 24.5148 82.2333 24.8381 82.7376 25.1484 82.9962 25.6397 82.9962 26.3121L82.9962 30.3591C82.9962 30.4755 83.022 30.5789 83.0738 30.6565 83.1255 30.7341 83.2289 30.7728 83.397 30.7728 83.4487 30.7728 83.5134 30.7728 83.578 30.7728 83.6427 30.7728 83.7073 30.7599 83.7849 30.747L83.7849 31.6133C83.6039 31.665 83.4617 31.7038 83.3711 31.7167 83.2806 31.7297 83.1384 31.7426 82.9832 31.7426 82.5824 31.7426 82.285 31.6004 82.104 31.3159 82.0135 31.1607 81.9359 30.9409 81.8971 30.6694 81.6515 30.9797 81.3153 31.2642 80.8628 31.484 80.4102 31.7167 79.9189 31.8331 79.3758 31.8331 78.7294 31.8331 78.1863 31.6391 77.7855 31.2383 77.3847 30.8375 77.1648 30.3462 77.1648 29.7514 77.1648 29.1049 77.3717 28.6006 77.7726 28.2386 78.1734 27.8766 78.7164 27.6568 79.3758 27.5792L81.2636 27.3465ZM78.7552 30.4755C79.0009 30.6694 79.2983 30.7728 79.6344 30.7728 80.0482 30.7728 80.449 30.6823 80.8369 30.4884 81.4963 30.1651 81.8196 29.648 81.8196 28.9239L81.8196 27.98C81.6773 28.0705 81.4963 28.1481 81.2636 28.2128 81.0309 28.2774 80.811 28.3162 80.5912 28.3421L79.8801 28.4326C79.4534 28.4843 79.1302 28.5748 78.9104 28.7041 78.5483 28.911 78.3673 29.2342 78.3673 29.6867 78.3673 30.0229 78.4966 30.2944 78.7423 30.4884Z" fill="#FFFFFF" transform="matrix(1.02904 0 0 1 -8.42787 799)"/><path d="M85.6468 29.3376C85.6856 29.7255 85.7761 30.0358 85.9442 30.2427 86.2415 30.6177 86.7717 30.8116 87.5216 30.8116 87.9612 30.8116 88.362 30.7211 88.6982 30.5272 89.0344 30.3332 89.2025 30.0488 89.2025 29.648 89.2025 29.3506 89.0732 29.1178 88.8016 28.9627 88.6336 28.8722 88.2844 28.7558 87.7802 28.6265L86.8234 28.3938C86.2157 28.2515 85.7632 28.0835 85.4787 27.8895 84.9615 27.5663 84.7029 27.1267 84.7029 26.5577 84.7029 25.8983 84.9486 25.3553 85.427 24.9415 85.9183 24.5278 86.5648 24.3209 87.3794 24.3209 88.4525 24.3209 89.2283 24.6312 89.6938 25.2518 89.9912 25.6397 90.1334 26.0664 90.1205 26.519L89.0085 26.519C88.9827 26.2604 88.8922 26.0147 88.7241 25.7949 88.4525 25.4846 87.9612 25.3294 87.2759 25.3294 86.8234 25.3294 86.4743 25.4199 86.2415 25.588 86.0088 25.7561 85.8924 25.9759 85.8924 26.2604 85.8924 26.5707 86.0476 26.8034 86.3579 26.9974 86.5389 27.1008 86.7975 27.2042 87.1466 27.2818L87.9483 27.4758C88.8146 27.6826 89.3964 27.8766 89.6809 28.0705 90.1334 28.3679 90.3661 28.8463 90.3661 29.4928 90.3661 30.1393 90.1205 30.6565 89.6421 31.109 89.1637 31.5616 88.4267 31.7943 87.444 31.7943 86.3838 31.7943 85.6339 31.5616 85.1942 31.0832 84.7546 30.6048 84.5219 30.0229 84.4831 29.3247L85.6209 29.3247Z" fill="#FFFFFF" transform="matrix(1.02904 0 0 1 -8.42787 799)"/><path d="M91.6591 21.8772 92.8357 21.8772 92.8357 25.4716C93.1202 25.1225 93.3659 24.8639 93.5857 24.7217 93.9606 24.476 94.439 24.3468 95.0079 24.3468 96.0294 24.3468 96.7147 24.6959 97.0767 25.4199 97.2706 25.8078 97.3741 26.3509 97.3741 27.0361L97.3741 31.5357 96.1587 31.5357 96.1587 27.1137C96.1587 26.5965 96.094 26.2216 95.9647 25.9759 95.7449 25.588 95.3441 25.3941 94.7623 25.3941 94.2709 25.3941 93.8313 25.5622 93.4305 25.8983 93.0297 26.2345 92.8357 26.8681 92.8357 27.8119L92.8357 31.5357 91.6591 31.5357 91.6591 21.8772Z" fill="#FFFFFF" transform="matrix(1.02904 0 0 1 -8.42787 799)"/><path d="M99.1196 21.903 100.322 21.903 100.322 23.2348 99.1196 23.2348 99.1196 21.903ZM99.1196 24.5407 100.322 24.5407 100.322 31.5357 99.1196 31.5357 99.1196 24.5407Z" fill="#FFFFFF" transform="matrix(1.02904 0 0 1 -8.42787 799)"/><path d="M102.106 24.5148 103.231 24.5148 103.231 25.5104C103.567 25.0967 103.917 24.7993 104.292 24.6312 104.666 24.4631 105.08 24.3597 105.533 24.3597 106.528 24.3597 107.201 24.7088 107.55 25.407 107.744 25.782 107.834 26.325 107.834 27.0361L107.834 31.5357 106.632 31.5357 106.632 27.1137C106.632 26.687 106.567 26.3379 106.438 26.0793 106.231 25.6397 105.843 25.4199 105.3 25.4199 105.016 25.4199 104.796 25.4458 104.615 25.5104 104.292 25.6009 104.007 25.7949 103.761 26.0923 103.567 26.325 103.438 26.5577 103.373 26.8163 103.309 27.062 103.283 27.4111 103.283 27.8766L103.283 31.5486 102.106 31.5486 102.106 24.5278Z" fill="#FFFFFF" transform="matrix(1.02904 0 0 1 -8.42787 799)"/><path d="M113.472 24.7993C113.691 24.9545 113.924 25.1743 114.157 25.4716L114.157 24.5924 115.243 24.5924 115.243 30.9797C115.243 31.8719 115.114 32.5701 114.855 33.0873 114.364 34.0441 113.446 34.5095 112.088 34.5095 111.338 34.5095 110.705 34.3415 110.187 34.0053 109.67 33.6691 109.386 33.139 109.321 32.4149L110.524 32.4149C110.575 32.7252 110.692 32.9709 110.86 33.139 111.131 33.3976 111.545 33.5269 112.114 33.5269 113.019 33.5269 113.601 33.2036 113.885 32.5701 114.053 32.1951 114.131 31.5228 114.118 30.553 113.885 30.9151 113.601 31.1737 113.265 31.3547 112.929 31.5357 112.502 31.6133 111.946 31.6133 111.183 31.6133 110.524 31.3418 109.955 30.7987 109.386 30.2557 109.101 29.3635 109.101 28.1222 109.101 26.9456 109.386 26.0276 109.955 25.3682 110.524 24.7088 111.222 24.3726 112.024 24.3726 112.567 24.3726 113.045 24.5019 113.459 24.7734ZM113.614 26.0664C113.252 25.6527 112.799 25.4329 112.256 25.4329 111.429 25.4329 110.86 25.8207 110.562 26.5965 110.407 27.0103 110.317 27.5533 110.317 28.2257 110.317 29.0144 110.472 29.6221 110.795 30.0358 111.118 30.4496 111.545 30.6565 112.088 30.6565 112.929 30.6565 113.523 30.2686 113.872 29.5057 114.066 29.0661 114.157 28.5619 114.157 27.9929 114.157 27.1267 113.976 26.4802 113.627 26.0535Z" fill="#FFFFFF" transform="matrix(1.02904 0 0 1 -8.42787 799)"/><path d="M117.273 22.5495 118.463 22.5495 118.463 24.5148 119.587 24.5148 119.587 25.4846 118.463 25.4846 118.463 30.0617C118.463 30.3074 118.54 30.4755 118.708 30.553 118.799 30.6048 118.954 30.6306 119.161 30.6306 119.212 30.6306 119.277 30.6306 119.342 30.6306 119.406 30.6306 119.484 30.6306 119.574 30.6048L119.574 31.5486C119.445 31.5874 119.303 31.6133 119.148 31.6391 118.993 31.665 118.837 31.665 118.669 31.665 118.113 31.665 117.751 31.5228 117.545 31.2383 117.351 30.9539 117.247 30.5918 117.247 30.1393L117.247 25.4975 116.29 25.4975 116.29 24.5278 117.247 24.5278 117.247 22.5624Z" fill="#FFFFFF" transform="matrix(1.02904 0 0 1 -8.42787 799)"/><path d="M125.858 25.213C126.479 25.8207 126.789 26.7 126.789 27.8766 126.789 29.0532 126.518 29.9453 125.975 30.6823 125.432 31.4193 124.578 31.7943 123.428 31.7943 122.471 31.7943 121.708 31.4711 121.139 30.8116 120.57 30.1651 120.299 29.2859 120.299 28.1869 120.299 27.0103 120.596 26.0664 121.191 25.3682 121.785 24.67 122.587 24.3209 123.583 24.3209 124.475 24.3209 125.238 24.6183 125.858 25.226ZM125.121 29.8807C125.406 29.2859 125.548 28.6265 125.548 27.9024 125.548 27.243 125.445 26.7129 125.238 26.3121 124.914 25.6656 124.346 25.3423 123.544 25.3423 122.833 25.3423 122.316 25.6139 121.992 26.1698 121.669 26.7129 121.501 27.3852 121.501 28.161 121.501 28.9368 121.669 29.5316 121.992 30.0229 122.316 30.5272 122.833 30.7728 123.531 30.7728 124.307 30.7728 124.837 30.4755 125.121 29.8807Z" fill="#FFFFFF" transform="matrix(1.02904 0 0 1 -8.42787 799)"/><path d="M128.237 24.5148 129.362 24.5148 129.362 25.5104C129.698 25.0967 130.048 24.7993 130.423 24.6312 130.798 24.4631 131.211 24.3597 131.664 24.3597 132.659 24.3597 133.332 24.7088 133.681 25.407 133.875 25.782 133.965 26.325 133.965 27.0361L133.965 31.5357 132.763 31.5357 132.763 27.1137C132.763 26.687 132.698 26.3379 132.569 26.0793 132.362 25.6397 131.974 25.4199 131.431 25.4199 131.147 25.4199 130.927 25.4458 130.746 25.5104 130.423 25.6009 130.138 25.7949 129.892 26.0923 129.698 26.325 129.569 26.5577 129.505 26.8163 129.44 27.062 129.414 27.4111 129.414 27.8766L129.414 31.5486 128.237 31.5486 128.237 24.5278Z" fill="#FFFFFF" transform="matrix(1.02904 0 0 1 -8.42787 799)"/><path d="M139.654 21.903 143.507 21.903C144.813 21.903 145.822 22.3685 146.546 23.3124 147.192 24.1657 147.516 25.2518 147.516 26.5707 147.516 27.5921 147.322 28.5231 146.947 29.3376 146.274 30.7987 145.124 31.5228 143.495 31.5228L139.654 31.5228 139.654 21.8901ZM143.249 30.4237C143.676 30.4237 144.038 30.385 144.309 30.2815 144.8 30.1134 145.214 29.7773 145.525 29.2989 145.77 28.911 145.964 28.4067 146.068 27.799 146.132 27.437 146.158 27.1008 146.158 26.7905 146.158 25.6009 145.925 24.67 145.46 24.0106 144.994 23.3512 144.244 23.015 143.223 23.015L140.96 23.015 140.96 30.4108 143.236 30.4108Z" fill="#FFFFFF" transform="matrix(1.02904 0 0 1 -8.42787 799)"/><path d="M156.101 22.6142C156.76 23.2607 157.135 23.9847 157.213 24.7993L155.946 24.7993C155.804 24.1787 155.519 23.6873 155.093 23.3253 154.666 22.9633 154.071 22.7823 153.308 22.7823 152.377 22.7823 151.627 23.1184 151.046 23.7778 150.477 24.4502 150.192 25.4716 150.192 26.8422 150.192 27.9671 150.451 28.8851 150.968 29.5833 151.485 30.2815 152.261 30.6306 153.282 30.6306 154.226 30.6306 154.95 30.2557 155.442 29.5187 155.7 29.1308 155.894 28.6136 156.023 27.98L157.291 27.98C157.174 29.0015 156.812 29.8419 156.179 30.5272 155.429 31.3547 154.407 31.7684 153.114 31.7684 152.002 31.7684 151.084 31.4323 150.334 30.747 149.339 29.8548 148.847 28.4713 148.847 26.5965 148.847 25.1743 149.222 24.0106 149.959 23.1055 150.761 22.1228 151.873 21.6186 153.282 21.6186 154.485 21.6186 155.429 21.9418 156.088 22.5754Z" fill="#FFFFFF" transform="matrix(1.02904 0 0 1 -8.42787 799)"/><path d="M181.34 21.903 183.215 21.903 185.982 30.0488 188.736 21.903 190.598 21.903 190.598 31.5357 189.356 31.5357 189.356 25.8466C189.356 25.6527 189.356 25.3294 189.369 24.8769 189.382 24.4243 189.382 23.933 189.382 23.4158L186.628 31.5357 185.335 31.5357 182.555 23.4158 182.555 23.7132C182.555 23.9459 182.555 24.308 182.581 24.7864 182.594 25.2648 182.607 25.6268 182.607 25.8466L182.607 31.5357 181.366 31.5357 181.366 21.903Z" fill="#FFFFFF" transform="matrix(1.02904 0 0 1 -8.42787 799)"/><path d="M196.739 24.7088C197.205 24.9415 197.554 25.2518 197.8 25.6139 198.032 25.963 198.187 26.3767 198.265 26.8551 198.33 27.1784 198.368 27.6956 198.368 28.4067L193.261 28.4067C193.287 29.1178 193.455 29.6997 193.765 30.1264 194.076 30.553 194.567 30.7728 195.214 30.7728 195.821 30.7728 196.313 30.566 196.675 30.1651 196.882 29.9324 197.024 29.648 197.114 29.3376L198.278 29.3376C198.252 29.5962 198.149 29.8807 197.968 30.2039 197.8 30.5143 197.606 30.7858 197.386 30.9797 197.037 31.3288 196.584 31.5616 196.067 31.6909 195.783 31.7555 195.472 31.7943 195.11 31.7943 194.244 31.7943 193.507 31.4711 192.899 30.8375 192.292 30.2039 191.994 29.3118 191.994 28.161 191.994 27.0103 192.292 26.1181 192.912 25.4199 193.533 24.7217 194.321 24.3597 195.291 24.3597 195.783 24.3597 196.261 24.476 196.726 24.7088ZM197.166 27.4628C197.114 26.9456 197.011 26.5448 196.83 26.2345 196.507 25.6656 195.976 25.3811 195.227 25.3811 194.684 25.3811 194.244 25.5751 193.869 25.963 193.507 26.3509 193.313 26.8551 193.287 27.4499L197.153 27.4499Z" fill="#FFFFFF" transform="matrix(1.02904 0 0 1 -8.42787 799)"/><path d="M199.196 24.5148 200.722 24.5148 202.338 26.9844 203.967 24.5148 205.402 24.5536 203.036 27.9412 205.506 31.5357 203.993 31.5357 202.247 28.898 200.554 31.5357 199.054 31.5357 201.523 27.9412 199.17 24.5148Z" fill="#FFFFFF" transform="matrix(1.02904 0 0 1 -8.42787 799)"/><path d="M206.579 21.903 207.781 21.903 207.781 23.2348 206.579 23.2348 206.579 21.903ZM206.579 24.5407 207.781 24.5407 207.781 31.5357 206.579 31.5357 206.579 24.5407Z" fill="#FFFFFF" transform="matrix(1.02904 0 0 1 -8.42787 799)"/><path d="M214.195 24.8898C214.686 25.2777 214.983 25.9371 215.087 26.881L213.936 26.881C213.871 26.4543 213.703 26.0923 213.458 25.8078 213.212 25.5234 212.811 25.3811 212.255 25.3811 211.505 25.3811 210.962 25.7432 210.639 26.4802 210.432 26.9586 210.329 27.5404 210.329 28.2386 210.329 28.9368 210.471 29.5316 210.768 30.01 211.066 30.4884 211.531 30.7341 212.177 30.7341 212.669 30.7341 213.057 30.5918 213.341 30.2815 213.626 29.9712 213.82 29.5704 213.936 29.0532L215.087 29.0532C214.957 29.9841 214.634 30.6694 214.104 31.0961 213.574 31.5228 212.914 31.7426 212.087 31.7426 211.169 31.7426 210.432 31.4064 209.889 30.7341 209.346 30.0617 209.074 29.2213 209.074 28.2257 209.074 26.9974 209.372 26.0406 209.966 25.3423 210.561 24.6441 211.324 24.308 212.255 24.308 213.044 24.308 213.69 24.5019 214.182 24.8898Z" fill="#FFFFFF" transform="matrix(1.02904 0 0 1 -8.42787 799)"/><path d="M221.358 25.213C221.978 25.8207 222.289 26.7 222.289 27.8766 222.289 29.0532 222.017 29.9453 221.474 30.6823 220.931 31.4193 220.078 31.7943 218.927 31.7943 217.97 31.7943 217.207 31.4711 216.638 30.8116 216.069 30.1651 215.798 29.2859 215.798 28.1869 215.798 27.0103 216.095 26.0664 216.69 25.3682 217.285 24.67 218.086 24.3209 219.082 24.3209 219.974 24.3209 220.737 24.6183 221.358 25.226ZM220.621 29.8807C220.905 29.2859 221.047 28.6265 221.047 27.9024 221.047 27.243 220.944 26.7129 220.737 26.3121 220.414 25.6656 219.845 25.3423 219.043 25.3423 218.332 25.3423 217.815 25.6139 217.492 26.1698 217.168 26.7129 217 27.3852 217 28.161 217 28.9368 217.168 29.5316 217.492 30.0229 217.815 30.5272 218.332 30.7728 219.03 30.7728 219.806 30.7728 220.336 30.4755 220.621 29.8807Z" fill="#FFFFFF" transform="matrix(1.02904 0 0 1 -8.42787 799)"/><path d="M234.443 22.6142C235.102 23.2607 235.477 23.9847 235.554 24.7993L234.287 24.7993C234.145 24.1787 233.861 23.6873 233.434 23.3253 233.007 22.9633 232.413 22.7823 231.65 22.7823 230.719 22.7823 229.969 23.1184 229.387 23.7778 228.818 24.4502 228.534 25.4716 228.534 26.8422 228.534 27.9671 228.792 28.8851 229.309 29.5833 229.827 30.2815 230.602 30.6306 231.624 30.6306 232.568 30.6306 233.292 30.2557 233.783 29.5187 234.042 29.1308 234.236 28.6136 234.365 27.98L235.632 27.98C235.516 29.0015 235.154 29.8419 234.52 30.5272 233.77 31.3547 232.749 31.7684 231.456 31.7684 230.344 31.7684 229.426 31.4323 228.676 30.747 227.68 29.8548 227.189 28.4713 227.189 26.5965 227.189 25.1743 227.564 24.0106 228.301 23.1055 229.103 22.1228 230.215 21.6186 231.624 21.6186 232.826 21.6186 233.77 21.9418 234.43 22.5754Z" fill="#FFFFFF" transform="matrix(1.02904 0 0 1 -8.42787 799)"/><path d="M237.171 21.903 238.373 21.903 238.373 23.2348 237.171 23.2348 237.171 21.903ZM237.171 24.5407 238.373 24.5407 238.373 31.5357 237.171 31.5357 237.171 24.5407Z" fill="#FFFFFF" transform="matrix(1.02904 0 0 1 -8.42787 799)"/><path d="M240.39 22.5495 241.58 22.5495 241.58 24.5148 242.705 24.5148 242.705 25.4846 241.58 25.4846 241.58 30.0617C241.58 30.3074 241.657 30.4755 241.825 30.553 241.916 30.6048 242.071 30.6306 242.278 30.6306 242.33 30.6306 242.394 30.6306 242.459 30.6306 242.524 30.6306 242.601 30.6306 242.692 30.6048L242.692 31.5486C242.562 31.5874 242.42 31.6133 242.265 31.6391 242.11 31.665 241.955 31.665 241.787 31.665 241.231 31.665 240.869 31.5228 240.662 31.2383 240.468 30.9539 240.364 30.5918 240.364 30.1393L240.364 25.4975 239.408 25.4975 239.408 24.5278 240.364 24.5278 240.364 22.5624Z" fill="#FFFFFF" transform="matrix(1.02904 0 0 1 -8.42787 799)"/><path d="M248.264 24.5148 249.57 24.5148C249.402 24.9674 249.04 25.9888 248.458 27.5921 248.032 28.7946 247.67 29.7773 247.385 30.5401 246.7 32.3244 246.222 33.4235 245.95 33.8113 245.678 34.1992 245.187 34.4061 244.515 34.4061 244.347 34.4061 244.217 34.4061 244.127 34.3803 244.036 34.3544 243.933 34.3415 243.791 34.3027L243.791 33.2295C243.998 33.2812 244.14 33.32 244.23 33.3329 244.321 33.3459 244.398 33.3588 244.476 33.3588 244.696 33.3588 244.851 33.32 244.954 33.2554 245.058 33.1778 245.148 33.1002 245.213 32.9838 245.239 32.945 245.316 32.764 245.446 32.4537 245.575 32.1305 245.678 31.8848 245.743 31.7297L243.144 24.5019 244.476 24.5019 246.364 30.2169 248.264 24.5019Z" fill="#FFFFFF" transform="matrix(1.02904 0 0 1 -8.42787 799)"/><path d="M47.8272 18.5025C44.2845 18.5025 41.3753 21.3729 41.4011 24.9286 41.4399 28.7817 46.0817 34.5354 47.4522 36.3844 47.6333 36.63 48.0082 36.63 48.1892 36.3844 49.5598 34.5354 54.2404 27.9542 54.2404 24.9286 54.2404 21.3858 51.37 18.5025 47.8143 18.5025ZM47.8272 28.3938C45.9136 28.3938 44.3491 26.8422 44.3491 24.9157 44.3491 22.9891 45.9007 21.4376 47.8272 21.4376 49.7537 21.4376 51.3053 22.9891 51.3053 24.9157 51.3053 26.8422 49.7537 28.3938 47.8272 28.3938Z" fill="#FFFFFF" transform="matrix(1.02904 0 0 1 -8.42787 799)"/><path d="M171.216 34.5871 169.716 34.5871 169.716 21.5669 171.216 21.5669 171.216 34.5871Z" fill="#FFFFFF" transform="matrix(1.02904 0 0 1 -8.42787 799)"/></g></svg>